<svg xmlns="http://www.w3.org/2000/svg" viewBox="0 0 1200 280" width="1200" height="280" role="img" aria-label="iris-service-shared — POLYREPO FLAT α · BACKEND CROSS-CUTTING INFRASTRUCTURE">
  <defs>
    <linearGradient id="bg" x1="0" y1="0" x2="1" y2="1">
      <stop offset="0%" stop-color="#0a0a14"/>
      <stop offset="50%" stop-color="#0f1a30"/>
      <stop offset="100%" stop-color="#000000"/>
    </linearGradient>
    <linearGradient id="title-grad" x1="0" y1="0" x2="1" y2="0">
      <stop offset="0%" stop-color="#ff3b30"/>
      <stop offset="50%" stop-color="#ffffff"/>
      <stop offset="100%" stop-color="#af52de"/>
    </linearGradient>
    <linearGradient id="rim-light" x1="0" y1="0" x2="0" y2="1">
      <stop offset="0%" stop-color="#cbd5e1" stop-opacity="0.6"/>
      <stop offset="50%" stop-color="#1e293b" stop-opacity="0.35"/>
      <stop offset="100%" stop-color="#cbd5e1" stop-opacity="0.5"/>
    </linearGradient>
    <radialGradient id="sensor-glow" cx="50%" cy="50%" r="50%">
      <stop offset="0%" stop-color="#ffffff" stop-opacity="0.95"/>
      <stop offset="60%" stop-color="#7ddffe" stop-opacity="0.6"/>
      <stop offset="100%" stop-color="#7ddffe" stop-opacity="0"/>
    </radialGradient>
    <linearGradient id="glass-refract-progressive" x1="0" y1="0.5" x2="1" y2="0">
      <stop offset="0%" stop-color="#ffffff" stop-opacity="0.5"/>
      <stop offset="22%" stop-color="#ffffff" stop-opacity="0.32"/>
      <stop offset="48%" stop-color="#ffffff" stop-opacity="0.16"/>
      <stop offset="75%" stop-color="#ffffff" stop-opacity="0.05"/>
      <stop offset="100%" stop-color="#ffffff" stop-opacity="0"/>
    </linearGradient>
  </defs>
  <rect width="1200" height="280" fill="url(#bg)"/>

  <g transform="translate(140 140) scale(1.1)">
    <circle r="100" fill="none" stroke="#34d4d4" stroke-width="0.6" opacity="0.4"/>
    <circle r="95" fill="none" stroke="url(#rim-light)" stroke-width="2"/>
    <circle r="91" fill="#0a0a14" stroke="#1e293b" stroke-width="1"/>
    <circle r="88" fill="none" stroke="#475569" stroke-width="0.5" opacity="0.6"/>
    <g stroke="#7ddffe" stroke-width="0.7" opacity="0.5">
      <g><line x1="0" y1="-100" x2="0" y2="-94"/></g>
      <g transform="rotate(45)"><line x1="0" y1="-100" x2="0" y2="-94"/></g>
      <g transform="rotate(90)"><line x1="0" y1="-100" x2="0" y2="-94"/></g>
      <g transform="rotate(135)"><line x1="0" y1="-100" x2="0" y2="-94"/></g>
      <g transform="rotate(180)"><line x1="0" y1="-100" x2="0" y2="-94"/></g>
      <g transform="rotate(225)"><line x1="0" y1="-100" x2="0" y2="-94"/></g>
      <g transform="rotate(270)"><line x1="0" y1="-100" x2="0" y2="-94"/></g>
      <g transform="rotate(315)"><line x1="0" y1="-100" x2="0" y2="-94"/></g>
    </g>
    <g stroke="#000000" stroke-width="0.4">
      <g transform="rotate(-90)"><path d="M 85 0 A 85 85 0 0 1 35.93 77.03 Q 5 30 5.92 12.69 Q 40 5 85 0 Z" fill="#ff2d20" opacity="0.55"/><path d="M 85 0 A 85 85 0 0 1 35.93 77.03 Q 5 30 5.92 12.69 Q 40 5 85 0 Z" fill="url(#glass-refract-progressive)"/></g>
      <g transform="rotate(-38.57)"><path d="M 85 0 A 85 85 0 0 1 35.93 77.03 Q 5 30 5.92 12.69 Q 40 5 85 0 Z" fill="#ff9500" opacity="0.55"/><path d="M 85 0 A 85 85 0 0 1 35.93 77.03 Q 5 30 5.92 12.69 Q 40 5 85 0 Z" fill="url(#glass-refract-progressive)"/></g>
      <g transform="rotate(12.86)"><path d="M 85 0 A 85 85 0 0 1 35.93 77.03 Q 5 30 5.92 12.69 Q 40 5 85 0 Z" fill="#ffcc00" opacity="0.55"/><path d="M 85 0 A 85 85 0 0 1 35.93 77.03 Q 5 30 5.92 12.69 Q 40 5 85 0 Z" fill="url(#glass-refract-progressive)"/></g>
      <g transform="rotate(64.29)"><path d="M 85 0 A 85 85 0 0 1 35.93 77.03 Q 5 30 5.92 12.69 Q 40 5 85 0 Z" fill="#34c759" opacity="0.55"/><path d="M 85 0 A 85 85 0 0 1 35.93 77.03 Q 5 30 5.92 12.69 Q 40 5 85 0 Z" fill="url(#glass-refract-progressive)"/></g>
      <g transform="rotate(115.72)"><path d="M 85 0 A 85 85 0 0 1 35.93 77.03 Q 5 30 5.92 12.69 Q 40 5 85 0 Z" fill="#30c9d4" opacity="0.55"/><path d="M 85 0 A 85 85 0 0 1 35.93 77.03 Q 5 30 5.92 12.69 Q 40 5 85 0 Z" fill="url(#glass-refract-progressive)"/></g>
      <g transform="rotate(167.15)"><path d="M 85 0 A 85 85 0 0 1 35.93 77.03 Q 5 30 5.92 12.69 Q 40 5 85 0 Z" fill="#007aff" opacity="0.55"/><path d="M 85 0 A 85 85 0 0 1 35.93 77.03 Q 5 30 5.92 12.69 Q 40 5 85 0 Z" fill="url(#glass-refract-progressive)"/></g>
      <g transform="rotate(218.58)"><path d="M 85 0 A 85 85 0 0 1 35.93 77.03 Q 5 30 5.92 12.69 Q 40 5 85 0 Z" fill="#af52de" opacity="0.55"/><path d="M 85 0 A 85 85 0 0 1 35.93 77.03 Q 5 30 5.92 12.69 Q 40 5 85 0 Z" fill="url(#glass-refract-progressive)"/></g>
    </g>
    <g stroke="#7ddffe" stroke-width="0.5" opacity="0.5">
      <line x1="-90" y1="0" x2="-22" y2="0"/>
      <line x1="22" y1="0" x2="90" y2="0"/>
      <line x1="0" y1="-90" x2="0" y2="-22"/>
      <line x1="0" y1="22" x2="0" y2="90"/>
    </g>
    <polygon points="0,-12 10.78,-5.16 10.78,5.16 0,12 -10.78,5.16 -10.78,-5.16 -5.39,-10.71" fill="#000000"/>
    <circle r="9" fill="url(#sensor-glow)"/>
    <circle r="2.5" fill="#ffffff"/>
    <circle r="1" fill="#7ddffe"/>
  </g>

  <g font-family="'Inter','Segoe UI',system-ui,sans-serif">
    <text x="280" y="80" font-size="44" font-weight="800" letter-spacing="2" fill="url(#title-grad)">iris-service-shared</text>
    <text x="282" y="110" font-size="14" font-weight="500" fill="#94a3b8" letter-spacing="2">POLYREPO FLAT α · BACKEND CROSS-CUTTING INFRASTRUCTURE</text>

    <g>
      <rect x="280" y="148" width="100" height="4" rx="2" fill="#ff2d20"/>
      <rect x="384" y="148" width="100" height="4" rx="2" fill="#ff9500"/>
      <rect x="488" y="148" width="100" height="4" rx="2" fill="#ffcc00"/>
      <rect x="592" y="148" width="100" height="4" rx="2" fill="#34c759"/>
      <rect x="696" y="148" width="100" height="4" rx="2" fill="#30c9d4"/>
      <rect x="800" y="148" width="100" height="4" rx="2" fill="#007aff"/>
      <rect x="904" y="148" width="100" height="4" rx="2" fill="#af52de"/>
    </g>

    <g font-size="10" font-weight="700" letter-spacing="1.5" fill="#cbd5e1" text-anchor="middle">
      <text x="330" y="172">COMPOSE</text>
      <text x="434" y="172">K8S</text>
      <text x="538" y="172">TERRAFORM</text>
      <text x="642" y="172">LGTM</text>
      <text x="746" y="172">SLOS</text>
      <text x="850" y="172">DASHBOARDS</text>
      <text x="954" y="172">ADRS</text>
    </g>

    <text x="280" y="208" font-size="12" font-weight="400" fill="#cbd5e1" letter-spacing="0.3">docker-compose dev stack · K8s manifests + kustomize · Terraform GCP/OVH/AWS/Azure</text>
    <text x="280" y="228" font-size="12" font-weight="400" fill="#cbd5e1" letter-spacing="0.3">LGTM (Loki/Grafana/Tempo/Mimir) · 3 SLOs as code (Sloth) · 60+ cross-cutting ADRs</text>

    <text x="1185" y="260" font-size="11" font-weight="600" fill="#64748b" letter-spacing="0.5" text-anchor="end" font-family="'JetBrains Mono','Fira Code',ui-monospace,monospace">github.com/iris7-app/iris-service-shared</text>
  </g>
</svg>
